<svg width="30" height="40" viewBox="0 0 30 40" fill="none" xmlns="http://www.w3.org/2000/svg">
<path d="M22.622 9.22406C23.9104 9.12776 25.157 9.13342 26.3673 9.56018C26.8556 9.73138 27.3523 9.92525 27.8575 10.1418C28.2754 10.3193 28.6734 10.2532 29.0914 10.1304C29.3446 10.0562 29.5451 10.1374 29.6929 10.374C29.7384 10.4466 29.76 10.5325 29.7544 10.6187C29.7488 10.7049 29.7164 10.7867 29.662 10.8518C29.2477 11.3465 28.7734 11.9168 28.7061 12.5795C28.6419 13.2216 28.5565 13.8 28.4499 14.3149C28.1531 15.7588 27.4692 16.9207 26.3982 17.8007C26.3908 17.8066 26.3846 17.8141 26.3803 17.8228C26.376 17.8315 26.3736 17.841 26.3732 17.8507C26.3729 17.8605 26.3746 17.8702 26.3783 17.8792C26.382 17.8881 26.3876 17.8962 26.3946 17.9026C27.2584 18.707 27.8635 19.638 28.21 20.6954C28.5153 21.6244 28.5935 22.6781 28.797 23.6676C28.9187 24.2586 29.96 24.6023 29.7347 25.2386C29.6281 25.5395 29.4221 25.666 29.1168 25.6182C28.5765 25.5338 28.0719 25.5879 27.6031 25.7805C25.9639 26.449 24.4338 26.8701 22.6292 26.5925C22.6144 26.5901 22.5993 26.591 22.5849 26.595C22.5704 26.599 22.5569 26.6062 22.5453 26.616C22.5336 26.6258 22.5241 26.638 22.5173 26.6518C22.5105 26.6657 22.5065 26.6808 22.5057 26.6964C22.3772 29.0932 21.4117 31.0866 19.6089 32.6766C18.6058 33.5622 17.3156 34.1759 16.0344 34.6574C15.9898 34.6741 15.9511 34.7048 15.9238 34.7453C15.8965 34.7859 15.8818 34.8343 15.8818 34.884L15.8836 38.5454C15.8835 38.5884 15.8732 38.6308 15.8535 38.6687C15.8339 38.7066 15.8055 38.7388 15.7709 38.7625L14.0227 39.9823C14.0079 39.9927 13.9906 39.9988 13.9727 39.9998C13.9548 40.0009 13.937 39.9969 13.9213 39.9884C13.9056 39.9798 13.8925 39.967 13.8834 39.9513C13.8744 39.9356 13.8698 39.9176 13.8701 39.8993L13.8373 34.8368C13.8361 34.7386 13.7901 34.6744 13.6992 34.6442C10.0048 33.4243 7.54056 30.7033 7.1026 26.7115C7.09291 26.6322 7.0499 26.5975 6.97357 26.6076C6.09523 26.7335 5.16419 26.6951 4.18045 26.4924C3.39358 26.33 2.71575 25.9297 1.97794 25.6729C1.60964 25.5458 1.13413 25.5376 0.551395 25.6484C0.472647 25.6622 0.396928 25.6515 0.324238 25.6163C-0.12099 25.3991 -0.0210395 24.8685 0.291528 24.5739C1.06931 23.8469 1.09112 22.8631 1.21651 21.8661C1.41883 20.2762 2.1112 18.9922 3.29363 18.014C3.36026 17.9586 3.36208 17.9014 3.29908 17.8422C2.27415 16.8716 1.48546 15.5498 1.22923 14.1751C1.13231 13.6527 1.05174 13.1114 0.987535 12.5512C0.922114 11.9898 0.652552 11.4762 0.178854 11.0104C0.00803198 10.8417 -0.0404259 10.6485 0.0334758 10.4307C0.0725138 10.3169 0.15056 10.222 0.252569 10.1645C0.354578 10.107 0.473329 10.0908 0.585923 10.1191C1.53271 10.357 2.39409 9.94539 3.26274 9.61494C4.48211 9.14853 5.67787 9.16553 7.08079 9.21651C7.14864 9.21903 7.18559 9.18504 7.19165 9.11454C7.49331 5.68542 10.1392 3.19666 13.0995 2.01648C13.7011 1.77667 13.9864 1.23662 14.199 0.645584C14.302 0.361082 14.4825 0.15463 14.7405 0.0262265C14.8023 -0.0052449 14.8653 -0.00839262 14.9295 0.0167845C15.4638 0.224496 15.7346 1.02513 15.9381 1.52552C15.986 1.6445 16.0756 1.7403 16.1889 1.79366C16.6783 2.02529 17.1726 2.26888 17.6718 2.52443C20.2632 3.85 22.0822 6.09895 22.4657 9.09188C22.4778 9.18756 22.5299 9.23162 22.622 9.22406ZM19.211 6.53515C18.2242 5.29643 16.5214 4.25032 15.0258 3.88021C14.8708 3.84245 14.7181 3.84874 14.5679 3.8991C11.3859 4.95087 9.17427 6.96567 9.04161 10.6384C9.04135 10.644 9.0426 10.6496 9.04522 10.6545C9.04784 10.6594 9.05173 10.6635 9.05645 10.6662C9.06117 10.669 9.06653 10.6703 9.07194 10.6701C9.07734 10.6698 9.08257 10.668 9.08704 10.6648C9.85635 10.15 10.6626 9.62312 11.5058 9.08433C12.827 8.24027 13.5829 7.12052 14.3498 5.73263C14.6497 5.18691 15.233 5.42672 15.4602 5.86669C16.1338 7.16835 17.0599 8.19935 18.2387 8.9597C18.9874 9.44436 19.7677 9.98441 20.5794 10.5799C20.5875 10.5861 20.5973 10.5897 20.6074 10.5903C20.6175 10.5909 20.6276 10.5885 20.6364 10.5833C20.6452 10.5781 20.6524 10.5704 20.6571 10.5611C20.6618 10.5518 20.6639 10.5412 20.663 10.5308C20.5503 8.9383 20.0663 7.60643 19.211 6.53515ZM10.8062 12.1679C9.01617 13.3216 7.90401 15.4724 7.79134 17.6741C7.64232 20.5915 9.05615 23.0331 11.5603 24.4569C12.8615 25.1971 14.0409 25.9373 14.8296 27.2213C14.878 27.3006 14.9229 27.2987 14.964 27.2156C15.3838 26.3508 16.6014 25.4633 17.4846 24.9912C20.1032 23.592 21.8006 21.5262 21.8842 18.4143C21.9472 16.088 21.2318 14.223 19.738 12.8194C18.6967 11.8412 17.441 11.1992 16.2652 10.3778C15.6873 9.97371 15.2433 9.48968 14.9332 8.92571C14.9266 8.9136 14.9172 8.90349 14.9058 8.89634C14.8943 8.88919 14.8813 8.88524 14.8678 8.88486C14.8543 8.88448 14.8409 8.88769 14.8288 8.89418C14.8167 8.90067 14.8063 8.91023 14.7987 8.92194C13.7992 10.4854 12.2818 11.2162 10.8062 12.1679ZM5.77237 17.1926C5.83597 15.1608 6.55379 13.1668 8.02213 11.7921C8.03429 11.7809 8.04318 11.7663 8.04778 11.7501C8.05238 11.7338 8.05251 11.7166 8.04816 11.7003C8.04381 11.6839 8.03515 11.6692 8.02317 11.6578C8.01118 11.6463 7.99634 11.6386 7.98034 11.6354C6.49867 11.3333 4.92492 11.4239 3.2591 11.9073C3.19611 11.9249 3.16461 11.9677 3.16461 12.0357C3.16582 14.1947 3.99933 15.9313 5.66515 17.2455C5.67494 17.253 5.68652 17.2577 5.69866 17.2589C5.71079 17.2602 5.72302 17.2579 5.73403 17.2525C5.74505 17.2471 5.75443 17.2386 5.76118 17.2281C5.76793 17.2175 5.7718 17.2053 5.77237 17.1926ZM21.7279 11.7072C23.1272 13.2593 23.8704 15.0759 23.9704 17.1983C23.9752 17.3015 24.017 17.3223 24.0958 17.2606C25.8173 15.9501 26.6096 14.1865 26.4727 11.9696C26.4691 11.9042 26.437 11.8645 26.3764 11.8507C24.7736 11.4692 23.3361 11.2521 21.7642 11.5882C21.7523 11.5908 21.7412 11.5967 21.7322 11.6052C21.7231 11.6137 21.7164 11.6246 21.7127 11.6367C21.709 11.6488 21.7085 11.6617 21.7111 11.674C21.7138 11.6864 21.7196 11.6979 21.7279 11.7072ZM3.64255 21.141C3.3009 21.9568 3.22094 22.8084 3.09555 23.6997C3.08586 23.7702 3.11433 23.8148 3.18096 23.8337C4.70988 24.2743 6.25879 24.4669 7.82769 24.4115C7.91976 24.409 7.9343 24.3725 7.8713 24.302C6.44536 22.731 5.73603 20.8232 5.74329 18.5786C5.74349 18.5724 5.74198 18.5663 5.73894 18.561C5.73589 18.5557 5.73142 18.5514 5.726 18.5485C5.72059 18.5455 5.71443 18.5442 5.70819 18.5445C5.70195 18.5448 5.69587 18.5468 5.69059 18.5503C4.76622 19.2225 4.08353 20.0861 3.64255 21.141ZM23.9867 18.6088C23.9595 20.7048 23.2834 22.7517 21.8842 24.3171C21.877 24.3249 21.8723 24.3346 21.8704 24.3452C21.8686 24.3557 21.8698 24.3666 21.8739 24.3765C21.8779 24.3863 21.8847 24.3947 21.8933 24.4006C21.9019 24.4065 21.912 24.4097 21.9223 24.4097C23.3361 24.4562 24.8663 24.28 26.5127 23.8809C26.5878 23.8633 26.6175 23.8155 26.6017 23.7374C26.5127 23.288 26.5145 22.831 26.4418 22.3722C26.2116 20.9044 25.4284 19.6323 24.0921 18.556C24.0825 18.5483 24.071 18.5435 24.0589 18.5422C24.0468 18.5409 24.0346 18.5431 24.0237 18.5486C24.0127 18.554 24.0035 18.5626 23.997 18.5732C23.9904 18.5839 23.9869 18.5962 23.9867 18.6088ZM15.133 30.8827C15.1044 30.9301 15.0646 30.9692 15.0173 30.9961C14.9701 31.023 14.917 31.037 14.8631 31.0366C14.8092 31.0362 14.7563 31.0215 14.7094 30.9939C14.6625 30.9663 14.6232 30.9267 14.5951 30.8789C13.8301 29.5817 13.2867 28.3883 12.0056 27.4989C11.0775 26.8556 10.1241 26.2375 9.1452 25.6446C9.09068 25.6106 9.06342 25.6263 9.06342 25.6918C9.03798 29.2928 11.733 31.6323 14.815 32.669C14.8817 32.6917 14.9477 32.691 15.0131 32.6671C18.1442 31.5568 20.4085 29.5042 20.6357 25.8806C20.643 25.7661 20.5981 25.7365 20.5012 25.7919C19.7428 26.2262 18.9711 26.6882 18.186 27.1779C17.1375 27.8331 16.2961 28.7225 15.7146 29.8517C15.5316 30.2054 15.3378 30.5491 15.133 30.8827Z" fill="white"/>
</svg>
