<svg width="11" height="11" viewBox="0 0 11 11" fill="none" xmlns="http://www.w3.org/2000/svg">
<path d="M10.5872 5.5005C10.5872 6.95932 10.0295 8.3584 9.03673 9.38994C8.04398 10.4215 6.69754 11.001 5.29359 11.001C3.88964 11.001 2.5432 10.4215 1.55046 9.38994C0.557717 8.3584 0 6.95932 0 5.5005C0 4.04167 0.557717 2.6426 1.55046 1.61106C2.5432 0.579513 3.88964 0 5.29359 0C6.69754 0 8.04398 0.579513 9.03673 1.61106C10.0295 2.6426 10.5872 4.04167 10.5872 5.5005ZM8.33614 5.50389C8.34576 4.68525 8.03284 3.89606 7.46622 3.30992C6.8996 2.72378 6.12569 2.3887 5.31474 2.3784C4.50378 2.36811 3.72222 2.68343 3.14198 3.25501C2.56175 3.82659 2.23036 4.60761 2.22074 5.42624C2.21111 6.24487 2.52402 7.03407 3.09065 7.62021C3.65727 8.20635 4.43118 8.54142 5.24213 8.55172C6.05309 8.56202 6.83465 8.24669 7.41489 7.67511C7.99513 7.10353 8.32651 6.32252 8.33614 5.50389Z" fill="white"/>
</svg>
